<svg width="77" height="24" viewBox="0 0 77 24" fill="none" xmlns="http://www.w3.org/2000/svg">
<path d="M0.938829 12.36C0.938829 15.272 3.37083 17.416 6.66683 17.416C8.87483 17.416 10.6988 16.52 11.8508 15.048C12.4268 16.264 13.6428 17 15.2428 17H17.1948V13.384H16.3308C15.7228 13.384 15.4028 13.032 15.4028 12.424V5.928C15.4028 2.408 12.7788 0.104 8.81083 0.104C6.28283 0.104 4.07483 0.903999 2.15483 2.312L3.91483 5.288C5.38683 4.296 6.79483 3.816 8.29883 3.816C10.2508 3.816 11.3388 4.808 11.3388 6.44V7.08L6.47483 7.432C2.95483 7.688 0.938829 9.384 0.938829 12.36ZM4.93883 12.328C4.93883 11.24 5.64283 10.664 7.05083 10.536L11.3388 10.152V11.208C11.3388 12.872 9.67483 14.216 7.59483 14.216C6.02683 14.216 4.93883 13.48 4.93883 12.328ZM28.5843 0.455999L25.0003 10.888L22.0883 0.455999H17.6723L22.6963 17H26.5043L30.2163 6.216L33.9283 17H37.7363L42.7603 0.455999H38.4723L35.5603 10.888L31.9763 0.455999H28.5843ZM42.8451 12.36C42.8451 15.272 45.2771 17.416 48.5731 17.416C50.7811 17.416 52.6051 16.52 53.7571 15.048C54.3331 16.264 55.5491 17 57.1491 17H59.1011V13.384H58.2371C57.6291 13.384 57.3091 13.032 57.3091 12.424V5.928C57.3091 2.408 54.6851 0.104 50.7171 0.104C48.1891 0.104 45.9811 0.903999 44.0611 2.312L45.8211 5.288C47.2931 4.296 48.7011 3.816 50.2051 3.816C52.1571 3.816 53.2451 4.808 53.2451 6.44V7.08L48.3811 7.432C44.8611 7.688 42.8451 9.384 42.8451 12.36ZM46.8451 12.328C46.8451 11.24 47.5491 10.664 48.9571 10.536L53.2451 10.152V11.208C53.2451 12.872 51.5811 14.216 49.5011 14.216C47.9331 14.216 46.8451 13.48 46.8451 12.328ZM64.4093 18.536C63.8973 19.816 63.2893 20.2 62.1373 20.2H60.5373V23.72H63.0013C65.5293 23.72 66.9373 22.792 68.0253 20.104L76.0893 0.455999H71.7373L67.2253 11.624L62.6493 0.455999H58.1373L65.1773 16.68L64.4093 18.536Z" fill="white"/>
</svg>
