<svg width="110" height="110" viewBox="0 0 110 110" fill="none" xmlns="http://www.w3.org/2000/svg">
<path fill-rule="evenodd" clip-rule="evenodd" d="M56.4823 77.1078C56.2257 77.3644 55.8776 77.5086 55.5146 77.5086C55.1517 77.5086 54.8036 77.3644 54.547 77.1078L42.9354 65.4962C42.6788 65.2396 42.5346 64.8915 42.5346 64.5286C42.5346 64.1656 42.6788 63.8176 42.9354 63.5609C43.192 63.3043 43.5401 63.1601 43.903 63.1601C44.266 63.1601 44.614 63.3043 44.8707 63.5609L54.1464 72.8367L54.1445 33.5643C54.1445 33.3844 54.1799 33.2062 54.2488 33.04C54.3176 32.8737 54.4186 32.7227 54.5458 32.5954C54.673 32.4682 54.8241 32.3673 54.9903 32.2984C55.1565 32.2296 55.3347 32.1941 55.5146 32.1941C55.6946 32.1941 55.8728 32.2296 56.039 32.2984C56.2052 32.3673 56.3563 32.4682 56.4835 32.5954C56.6107 32.7227 56.7117 32.8737 56.7805 33.04C56.8494 33.2062 56.8848 33.3844 56.8848 33.5643L56.8829 72.8367L66.1586 63.5609C66.4153 63.3043 66.7633 63.1601 67.1263 63.1601C67.4892 63.1601 67.8373 63.3043 68.0939 63.5609C68.3505 63.8176 68.4947 64.1656 68.4947 64.5286C68.4947 64.8915 68.3505 65.2396 68.0939 65.4962L56.4823 77.1078Z" fill="white"/>
<circle cx="55" cy="55" r="54" stroke="white" stroke-width="2"/>
</svg>
