<svg width="158" height="159" viewBox="0 0 158 159" fill="none" xmlns="http://www.w3.org/2000/svg">
<g filter="url(#filter0_d_23_38)">
<path d="M154 32.9292L103.395 23.4087C103.76 23.4689 104.132 23.5216 104.518 23.5216C106.383 23.5216 108.171 22.7781 109.49 21.4546C110.809 20.1312 111.55 18.3362 111.55 16.4646C111.55 14.593 110.809 12.798 109.49 11.4746C108.171 10.1511 106.383 9.40763 104.518 9.40763C103.285 9.41094 102.074 9.74095 101.009 10.3643C99.9444 10.9876 99.0623 11.8822 98.4525 12.9574L60.4075 6.01838C60.1631 4.34868 59.3292 2.8226 58.0577 1.71799C56.7863 0.613388 55.1618 0.00372221 53.48 0C51.6155 0.00132965 49.8278 0.745338 48.5096 2.06856C47.1915 3.39179 46.4507 5.18599 46.45 7.05698C46.45 9.91439 48.1475 12.3579 50.58 13.4692L4 4.70632V9.41014L75.7925 22.917L75.8175 46.5741H29.645C15.4825 46.5741 4 58.0965 4 72.3108V124.788C4 139.002 15.4825 150.522 29.645 150.522H128.355C142.52 150.522 154 139.002 154 124.788V72.3108C154 58.0965 142.52 46.5741 128.355 46.5741H85.1925L85.1675 24.6806L154 37.633V32.9292ZM51.135 7.05698C51.1355 6.59228 51.2732 6.13815 51.5308 5.75197C51.7884 5.36579 52.1543 5.06489 52.5822 4.88729C53.0102 4.70968 53.4809 4.66334 53.9351 4.75412C54.3893 4.8449 54.8064 5.06873 55.1339 5.39733C55.4613 5.72592 55.6844 6.14454 55.7749 6.60028C55.8653 7.05603 55.8192 7.52846 55.6422 7.95788C55.4652 8.38731 55.1653 8.75445 54.7805 9.01294C54.3956 9.27142 53.9431 9.40964 53.48 9.41014C52.8585 9.40881 52.2628 9.16047 51.8233 8.71945C51.3838 8.27844 51.1363 7.68067 51.135 7.05698ZM75.7925 18.2132L53.8175 14.0788C54.9898 14.0226 56.1291 13.6712 57.1305 13.057C58.1319 12.4427 58.9631 11.5855 59.5475 10.5641L75.7925 13.5269V18.2132ZM147.678 129.936C147.217 131.737 146.518 133.469 145.598 135.084H12.405C11.4839 133.469 10.7835 131.738 10.3225 129.936H147.678ZM128.355 51.5915C139.738 51.5915 149 60.8862 149 72.3108V124.788H9V72.3108C9 60.8862 18.2625 51.5915 29.645 51.5915H128.355ZM104.518 14.114C105.818 14.114 106.863 15.1676 106.863 16.4671C106.863 16.9332 106.726 17.389 106.468 17.7768C106.21 18.1646 105.844 18.4669 105.415 18.6455C104.985 18.8241 104.513 18.871 104.058 18.7802C103.602 18.6893 103.184 18.4649 102.855 18.1353C102.527 17.8057 102.303 17.3858 102.212 16.9286C102.122 16.4714 102.169 15.9975 102.347 15.567C102.525 15.1364 102.826 14.7686 103.212 14.5099C103.599 14.2513 104.053 14.1135 104.518 14.114ZM85.1675 19.9768V15.2379L97.595 17.5057C97.8002 18.8943 98.4149 20.1894 99.3599 21.2245C100.305 22.2595 101.537 22.987 102.897 23.3134L85.1675 19.9768Z" fill="white"/>
<path d="M49.1475 55.9841H73.9025V114.261H49.1475V55.9841ZM84.0975 55.9841H108.848V114.261H84.0975V55.9841ZM143.8 77.2577C143.8 74.4641 143.252 71.6979 142.186 69.117C141.121 66.5361 139.559 64.1911 137.591 62.2159C135.622 60.2407 133.285 58.6739 130.713 57.6051C128.141 56.5363 125.384 55.9863 122.6 55.9866H119.05V114.263H143.8V77.2577ZM14.2 77.2577V114.263H38.95V55.9866H35.4C32.616 55.986 29.8592 56.5357 27.2869 57.6044C24.7147 58.6731 22.3775 60.2399 20.4088 62.2152C18.4401 64.1905 16.8785 66.5356 15.8131 69.1166C14.7478 71.6977 14.1997 74.464 14.2 77.2577Z" fill="white"/>
</g>
<defs>
<filter id="filter0_d_23_38" x="0" y="0" width="158" height="158.522" filterUnits="userSpaceOnUse" color-interpolation-filters="sRGB">
<feFlood flood-opacity="0" result="BackgroundImageFix"/>
<feColorMatrix in="SourceAlpha" type="matrix" values="0 0 0 0 0 0 0 0 0 0 0 0 0 0 0 0 0 0 127 0" result="hardAlpha"/>
<feOffset dy="4"/>
<feGaussianBlur stdDeviation="2"/>
<feComposite in2="hardAlpha" operator="out"/>
<feColorMatrix type="matrix" values="0 0 0 0 0 0 0 0 0 0 0 0 0 0 0 0 0 0 0.25 0"/>
<feBlend mode="normal" in2="BackgroundImageFix" result="effect1_dropShadow_23_38"/>
<feBlend mode="normal" in="SourceGraphic" in2="effect1_dropShadow_23_38" result="shape"/>
</filter>
</defs>
</svg>
