<svg width="31" height="31" viewBox="0 0 31 31" fill="none" xmlns="http://www.w3.org/2000/svg">
<path d="M15.5136 7.60216C15.241 7.60216 14.9714 7.61607 14.7057 7.64328C14.4401 7.67049 14.1781 7.71081 13.9206 7.76373C13.663 7.81666 13.4101 7.88221 13.1622 7.95958L12.4346 8.22672L11.7419 8.5612L11.0883 8.95895L10.4775 9.41579L9.91391 9.92774L9.40146 10.4908L8.94413 11.1009L8.54588 11.754L8.21121 12.4459C8.11061 12.6825 8.02112 12.9252 7.94366 13.1729C7.86621 13.4205 7.80066 13.6734 7.74761 13.9306C7.69459 14.1878 7.65427 14.4495 7.62695 14.715C7.59965 14.9804 7.58594 15.2498 7.58594 15.5221C7.58594 15.7944 7.59984 16.0637 7.62695 16.3292C7.65392 16.5925 7.69418 16.8544 7.74761 17.1136C7.80066 17.3719 7.86621 17.6237 7.94366 17.8714C8.02112 18.1191 8.1105 18.3616 8.21121 18.5984L8.54588 19.2903L8.94413 19.9432L9.40146 20.5534L9.91391 21.1165L10.4775 21.6285L11.0883 22.0854L11.7419 22.483L12.4346 22.8175L13.1622 23.0847L13.9206 23.2806C14.1801 23.334 14.4421 23.3742 14.7057 23.4011C14.9741 23.4285 15.2438 23.4423 15.5136 23.442C15.7862 23.442 16.0558 23.4283 16.3214 23.4011C16.585 23.3742 16.8471 23.334 17.1066 23.2806L17.865 23.0847L18.5926 22.8175L19.2852 22.483L19.9389 22.0854L20.5497 21.6285L21.1134 21.1165L21.6259 20.5534L22.0832 19.9432L22.4815 19.2903L22.8162 18.5984L23.0836 17.8714C23.1611 17.6237 23.2267 17.3709 23.2797 17.1136L23.4003 16.3291C23.4276 16.0636 23.4414 15.7943 23.4414 15.522C23.4414 15.2497 23.4276 14.9803 23.4003 14.7149C23.3734 14.4515 23.3331 14.1898 23.2797 13.9305C23.2267 13.6723 23.1611 13.4205 23.0836 13.1728L22.8162 12.4458L22.4815 11.7539L22.0832 11.1008L21.6259 10.4907L21.1134 9.92763L20.5497 9.41568L19.9389 8.95886L19.2852 8.56111L18.5926 8.22664L17.865 7.95948L17.1066 7.76364L16.3214 7.64317C16.053 7.61576 15.7834 7.60203 15.5136 7.60205V7.60216ZM15.5136 10.3358C15.6939 10.3358 15.8717 10.3448 16.0469 10.3624L16.5633 10.4406L17.0622 10.5677L17.5399 10.7412L17.994 10.9587L18.4211 11.2174L18.8203 11.515L19.1884 11.8489L19.5225 12.2166L19.8205 12.6154L20.0795 13.043L20.297 13.4969C20.3623 13.6522 20.4203 13.8114 20.4708 13.9742C20.5212 14.137 20.5636 14.3033 20.5979 14.4727C20.6321 14.6422 20.6575 14.8146 20.676 14.9897L20.7027 15.5226C20.7027 15.7026 20.6937 15.8804 20.676 16.0556C20.6584 16.2308 20.6323 16.4032 20.5979 16.5725C20.5634 16.7418 20.5209 16.9082 20.4708 17.071L20.297 17.5483L20.0795 18.0022L19.8205 18.4297L19.5225 18.8287L19.1884 19.1963L18.8203 19.5302L18.4211 19.8278L17.994 20.0865L17.5399 20.304L17.0622 20.4775L16.5633 20.6047L16.0469 20.6827C15.8697 20.7005 15.6916 20.7094 15.5135 20.7093C15.3353 20.7094 15.1573 20.7005 14.98 20.6827L14.4636 20.6047C14.2941 20.5703 14.1276 20.5278 13.9646 20.4775L13.487 20.304L13.0328 20.0865L12.6058 19.8278L12.2065 19.5302L11.8385 19.1963L11.5043 18.8287L11.2064 18.4297L10.9473 18.0022L10.7299 17.5483L10.5561 17.071L10.4289 16.5725L10.3508 16.0556C10.333 15.8785 10.3241 15.7006 10.3242 15.5226C10.3241 15.3446 10.333 15.1667 10.3508 14.9897C10.3684 14.8146 10.3945 14.6421 10.4289 14.4727C10.4631 14.3046 10.5055 14.1382 10.5562 13.9743L10.73 13.497L10.9475 13.0432L11.2065 12.6155L11.5044 12.2167L11.8386 11.849L12.2066 11.5151L12.6058 11.2175L13.0329 10.9588L13.487 10.7413C13.6434 10.6757 13.8028 10.6177 13.9648 10.5678L14.4638 10.4407C14.6333 10.4063 14.8059 10.3801 14.9802 10.3625C15.1575 10.3448 15.3355 10.3359 15.5137 10.3359L15.5136 10.3358Z" fill="white"/>
<path d="M23.7628 5.34912C23.7 5.34912 23.6371 5.35231 23.5745 5.35866C23.5118 5.36499 23.4496 5.37446 23.3878 5.38705C23.3262 5.39965 23.2651 5.41532 23.205 5.43403C23.1448 5.45276 23.0858 5.4745 23.0277 5.49917C22.9697 5.52388 22.9131 5.5515 22.8578 5.5819C22.8025 5.61226 22.7489 5.64537 22.697 5.68112C22.6449 5.7169 22.5947 5.75529 22.5467 5.79612C22.4985 5.83692 22.4524 5.8801 22.4085 5.92553C22.3648 5.97097 22.3233 6.01861 22.2841 6.06824C22.2449 6.11788 22.2083 6.16944 22.1743 6.22276C22.1403 6.27604 22.1091 6.331 22.0804 6.38743C22.052 6.4439 22.0262 6.50176 22.0034 6.56083C21.9805 6.61986 21.9607 6.68003 21.9437 6.74106C21.9269 6.80212 21.9132 6.86397 21.9026 6.9264C21.8919 6.98881 21.8843 7.05171 21.8798 7.11489C21.8766 7.15963 21.8751 7.20449 21.8751 7.24936C21.8751 7.31274 21.8781 7.37607 21.8845 7.43915C21.8908 7.50218 21.9002 7.56485 21.9127 7.62693C21.9252 7.68902 21.9407 7.75044 21.9592 7.81095C21.978 7.87149 21.9995 7.93106 22.024 7.98942C22.0486 8.0478 22.0759 8.10492 22.1063 8.16054C22.1364 8.21615 22.1693 8.27021 22.2049 8.32252C22.2404 8.37479 22.2785 8.42523 22.319 8.47366C22.3597 8.52215 22.4025 8.56856 22.4477 8.61271C22.4929 8.65684 22.5401 8.69867 22.5896 8.73805C22.6389 8.77744 22.6901 8.81432 22.7431 8.84857C22.796 8.88282 22.8507 8.91438 22.9067 8.94312C22.9629 8.97188 23.0203 8.9978 23.0789 9.02077C23.1377 9.04374 23.1973 9.06372 23.258 9.08066C23.3187 9.09758 23.3801 9.11145 23.4421 9.12217C23.5041 9.13295 23.5667 9.14062 23.6294 9.14512C23.6739 9.1483 23.7185 9.14987 23.763 9.1499C23.8259 9.1499 23.889 9.14675 23.9516 9.14044C24.0141 9.13412 24.0765 9.12464 24.1381 9.11205C24.1998 9.09948 24.2608 9.08378 24.321 9.06508C24.3811 9.04635 24.4403 9.0246 24.4982 8.99993C24.5561 8.97524 24.613 8.94766 24.6681 8.91729C24.7234 8.88691 24.777 8.85376 24.8291 8.81798C24.881 8.78222 24.9311 8.74388 24.9794 8.70309C25.0274 8.66225 25.0734 8.61904 25.1174 8.57358C25.1613 8.52813 25.2028 8.48049 25.2418 8.43087C25.281 8.38122 25.3176 8.32967 25.3516 8.27634C25.3856 8.22304 25.417 8.16803 25.4454 8.11159C25.4741 8.0551 25.4999 7.99723 25.5227 7.93818C25.5455 7.87913 25.5653 7.81898 25.5821 7.75793C25.5989 7.6969 25.6127 7.63505 25.6235 7.57262C25.6342 7.51021 25.6418 7.44728 25.6461 7.38412C25.6493 7.33937 25.651 7.29452 25.651 7.24966C25.651 7.1863 25.6478 7.12299 25.6416 7.05996C25.6353 6.99692 25.6258 6.93426 25.6133 6.87217C25.6009 6.81008 25.5851 6.74866 25.5666 6.68815C25.5479 6.62761 25.5264 6.56805 25.5018 6.50968C25.4773 6.4513 25.45 6.39419 25.4198 6.33856C25.3897 6.28295 25.3567 6.2289 25.3212 6.17658C25.2855 6.12427 25.2474 6.07381 25.2069 6.02533C25.1662 5.97687 25.1234 5.93046 25.0784 5.8863C25.0332 5.84217 24.9858 5.80034 24.9365 5.76097C24.8872 5.72159 24.836 5.68474 24.783 5.65053C24.7301 5.61628 24.6754 5.58472 24.6192 5.55598C24.563 5.52722 24.5055 5.5013 24.447 5.47833C24.3884 5.45536 24.3286 5.43538 24.2679 5.41844C24.2074 5.40148 24.1458 5.38759 24.0838 5.37683C24.0218 5.36609 23.9594 5.35844 23.8965 5.35399C23.852 5.3508 23.8074 5.34923 23.7628 5.34923V5.34912Z" fill="white"/>
<path d="M14.0103 0.0281209C13.1481 0.0267304 12.3786 0.0303053 11.6874 0.0400378L9.83422 0.0896938C9.28521 0.113528 8.80017 0.144611 8.36479 0.184832C8.1471 0.204893 7.94173 0.227337 7.74708 0.252066C7.56183 0.275413 7.37712 0.302599 7.19302 0.333603C7.01771 0.363397 6.85137 0.395573 6.69187 0.430529C6.53239 0.465488 6.38004 0.503227 6.23305 0.543746C6.08937 0.583368 5.94679 0.626951 5.80553 0.674441C5.66708 0.721118 5.53202 0.770576 5.39863 0.823409C5.13188 0.929078 4.8717 1.04765 4.60374 1.18053C4.39757 1.28282 4.20709 1.38641 4.02615 1.49605C3.84521 1.60569 3.67378 1.72149 3.50595 1.84761C3.33311 1.97813 3.1665 2.11673 3.00672 2.26294C2.83967 2.41508 2.66906 2.58242 2.49178 2.76943C2.26903 3.00311 2.07547 3.22099 1.90365 3.43481C1.81775 3.54167 1.73731 3.64735 1.66153 3.75361C1.5866 3.85832 1.51496 3.96538 1.44672 4.07457C1.37919 4.18283 1.31523 4.29308 1.25406 4.40649C1.19193 4.52185 1.13321 4.63903 1.07798 4.75784C0.96496 5.00057 0.859491 5.26196 0.75422 5.55374C0.676124 5.76943 0.606191 5.98802 0.544572 6.20899C0.481708 6.43483 0.425797 6.6711 0.37594 6.92661C0.326086 7.18215 0.282587 7.45695 0.244352 7.76084C0.20315 8.09396 0.170235 8.42805 0.145637 8.7628C0.117829 9.13084 0.094789 9.53584 0.0759197 9.98662L0.0312296 11.4854L0.00719593 13.3125L0.000244141 15.5209L0.0206031 18.7323L0.0841627 21.1655L0.133123 22.1158L0.1943 22.9035C0.21391 23.1158 0.238447 23.3274 0.26789 23.5386C0.294703 23.7261 0.323505 23.8901 0.35449 24.0322C0.417362 24.3209 0.491706 24.607 0.577346 24.8899C0.659345 25.1607 0.753118 25.4276 0.858397 25.6903C0.961881 25.9475 1.0751 26.1955 1.19824 26.4343C1.32139 26.673 1.45447 26.9025 1.59748 27.1229C1.74049 27.3432 1.89343 27.5546 2.0567 27.7569C2.21978 27.9593 2.39325 28.1528 2.5764 28.3373C2.75982 28.522 2.95329 28.6977 3.15718 28.8648C3.36346 29.0337 3.57792 29.1926 3.79972 29.3405C4.00559 29.4781 4.20929 29.6042 4.41447 29.7198C4.61963 29.8357 4.8266 29.9405 5.03933 30.0361C5.25205 30.1314 5.47015 30.2173 5.69798 30.2946C5.92578 30.3719 6.16315 30.4406 6.41401 30.5015C6.66487 30.5627 6.93042 30.616 7.21149 30.6628C7.49253 30.7095 7.79295 30.7495 8.11393 30.784C8.43491 30.8184 8.77733 30.8468 9.14528 30.8707C9.51324 30.8946 9.90651 30.9136 10.3291 30.9288C10.9819 30.9525 11.97 30.9663 13.1095 30.9717L16.7985 30.9641L20.2917 30.9153L21.6199 30.8778L22.4851 30.8335C22.6709 30.8182 22.8526 30.8003 23.028 30.7794C23.2035 30.7586 23.3764 30.7347 23.5449 30.7073C23.7133 30.6802 23.8779 30.6498 24.0396 30.616C24.1996 30.5827 24.3587 30.5454 24.5167 30.5045C24.6732 30.4647 24.8275 30.4195 24.9804 30.3715C25.133 30.3237 25.2844 30.2718 25.4346 30.2161C25.5857 30.1601 25.7354 30.1004 25.8837 30.0374C26.0329 29.9736 26.1819 29.9058 26.3315 29.8337C26.5612 29.7231 26.7461 29.6307 26.9084 29.5407C27.0613 29.457 27.2083 29.3633 27.3489 29.2602C27.4875 29.1582 27.6253 29.0419 27.7842 28.8955C27.943 28.7491 28.1232 28.5728 28.346 28.3498C28.5422 28.1539 28.7073 27.9836 28.8498 27.8288C28.9923 27.6741 29.1124 27.5348 29.2177 27.4004C29.318 27.273 29.4114 27.1404 29.4978 27.003C29.5819 26.8689 29.6595 26.7296 29.7382 26.5753C29.8571 26.343 29.9628 26.1277 30.0573 25.92C30.1492 25.72 30.2332 25.5161 30.3089 25.3094C30.3836 25.1043 30.4484 24.8957 30.5029 24.6843C30.5589 24.4668 30.6071 24.2371 30.6489 23.9853C30.6904 23.7334 30.7257 23.4593 30.7563 23.1532C30.7869 22.8473 30.8129 22.5089 30.8357 22.1289L30.8964 20.853L30.9483 19.2663L30.9856 17.4986L30.9998 15.6502L30.9666 12.0198L30.9223 10.3938L30.8618 8.99767L30.7862 7.90921C30.7589 7.60631 30.7292 7.36776 30.6979 7.20648C30.6631 7.02827 30.6243 6.8509 30.5815 6.67446C30.5397 6.5028 30.4939 6.33217 30.4439 6.16272C30.3953 5.99763 30.3423 5.8338 30.2853 5.67142C30.2289 5.51103 30.169 5.35401 30.1064 5.20039C30.0439 5.04674 29.9761 4.8967 29.9057 4.74981C29.8351 4.60293 29.7613 4.45962 29.6838 4.31958C29.6061 4.17956 29.5253 4.04301 29.4407 3.90982C29.3563 3.77665 29.2683 3.64684 29.1766 3.52051C29.0855 3.39459 28.9904 3.27156 28.8916 3.15157C28.7932 3.03226 28.6911 2.91607 28.5854 2.80318C28.4799 2.69046 28.3708 2.5811 28.2584 2.47527C28.1458 2.3694 28.03 2.2669 27.9105 2.16779C27.7904 2.06835 27.6675 1.97267 27.5413 1.88088C27.4141 1.78816 27.2841 1.69933 27.1512 1.61453C27.0167 1.52852 26.8798 1.44652 26.7403 1.36863C26.5986 1.28944 26.4544 1.21433 26.3084 1.14339C26.0658 1.02551 25.8415 0.920934 25.6215 0.828178C25.4049 0.736121 25.1843 0.65436 24.9601 0.583174C24.7348 0.512165 24.5001 0.451289 24.242 0.398752C23.9837 0.346216 23.7021 0.30242 23.3835 0.265177C23.0648 0.227936 22.709 0.197845 22.3019 0.172818C21.895 0.147792 21.4372 0.128126 20.9145 0.112237L19.1382 0.0725124L16.8901 0.0459962L14.0113 0.0283179L14.0103 0.0281209ZM15.5054 2.7594L19.657 2.78303L21.2231 2.81322C21.6543 2.82534 21.9835 2.83954 22.1764 2.85593C22.4278 2.87709 22.667 2.90359 22.8961 2.93539C23.1157 2.96572 23.3344 3.00343 23.5514 3.04849C23.76 3.09219 23.9589 3.14184 24.1494 3.19785C24.3397 3.25387 24.5216 3.31664 24.696 3.38605C24.8706 3.45548 25.0374 3.53183 25.198 3.61547C25.3573 3.69846 25.5121 3.78978 25.6617 3.88907C25.8107 3.98788 25.9543 4.09436 26.0938 4.20905C26.2331 4.32375 26.3683 4.4467 26.5002 4.57819C26.6397 4.71694 26.7683 4.85825 26.8867 5.00403C27.0046 5.14894 27.114 5.30079 27.2137 5.45879C27.3146 5.61904 27.4055 5.78538 27.486 5.95683C27.5682 6.13164 27.6421 6.31634 27.7084 6.51268C27.7749 6.70903 27.8339 6.91768 27.8862 7.14064C27.9411 7.37702 27.987 7.61537 28.024 7.85519C28.0636 8.10944 28.0976 8.38056 28.1265 8.67084C28.1551 8.96112 28.179 9.27069 28.1986 9.60189C28.2143 9.86755 28.2281 10.2181 28.2397 10.6321L28.2688 12.0439L28.2909 15.5019L28.2657 18.9567L28.2354 20.3643L28.1934 21.3881C28.1646 21.8676 28.134 22.2706 28.0974 22.6213C28.0791 22.7967 28.0591 22.959 28.0371 23.1112C28.0164 23.255 27.9919 23.3982 27.9637 23.5407C27.9379 23.6707 27.9079 23.7999 27.8737 23.9282C27.8412 24.0503 27.8044 24.1715 27.7637 24.2914C27.7226 24.4117 27.678 24.5308 27.6298 24.6483C27.5788 24.7728 27.525 24.8957 27.4684 25.0175C27.418 25.1262 27.365 25.2322 27.309 25.3351C27.2537 25.4371 27.1947 25.537 27.1327 25.6349C27.0712 25.732 27.0066 25.8263 26.939 25.9176C26.8718 26.0084 26.8014 26.0969 26.7278 26.1828C26.6546 26.2685 26.5782 26.3512 26.4987 26.4313C26.4193 26.5111 26.3369 26.5882 26.2514 26.6627C26.1661 26.7372 26.0774 26.8089 25.9857 26.8777C25.8942 26.9466 25.7993 27.0127 25.7014 27.076C25.6032 27.1395 25.5022 27.2002 25.3978 27.2584C25.2934 27.3163 25.1858 27.3716 25.0751 27.4243C24.9623 27.4779 24.8482 27.5281 24.7324 27.5748C24.6129 27.623 24.4921 27.6678 24.3701 27.7094C24.1216 27.794 23.8599 27.8682 23.5841 27.9322C23.2969 27.9987 23.0069 28.0529 22.715 28.0949C22.6026 28.1113 22.3447 28.1268 21.9753 28.141L20.5675 28.1802L16.5762 28.2321L12.3985 28.2385L10.7579 28.2211L9.69258 28.1879L8.90703 28.1326C8.66313 28.1121 8.43629 28.0893 8.22377 28.0633C8.01124 28.0374 7.81332 28.0086 7.6271 27.9759C7.45064 27.9455 7.27525 27.9089 7.10124 27.8667C6.94258 27.8282 6.78554 27.7832 6.63052 27.732C6.48105 27.6822 6.33813 27.6276 6.1991 27.5675C6.06005 27.5074 5.92499 27.4416 5.79121 27.3696C5.65744 27.2977 5.52506 27.2198 5.39118 27.1346C5.2902 27.0704 5.19257 27.0054 5.09862 26.9367C5.00467 26.8678 4.91389 26.7992 4.82651 26.7273C4.73911 26.6554 4.65519 26.5813 4.57425 26.5051C4.49384 26.4291 4.41621 26.3503 4.34147 26.2689C4.26698 26.1876 4.19577 26.104 4.12744 26.0175C4.05885 25.9305 3.99349 25.841 3.93151 25.7493C3.86859 25.656 3.80906 25.5607 3.75305 25.4634C3.69643 25.365 3.64261 25.2634 3.59146 25.1583C3.53945 25.0515 3.49093 24.943 3.44598 24.833C3.40029 24.7209 3.35698 24.6053 3.31627 24.486C3.23483 24.247 3.16334 23.9928 3.10117 23.7218C3.03899 23.4507 2.98595 23.1627 2.94106 22.8557C2.89618 22.5489 2.86003 22.2234 2.83123 21.8777C2.80998 21.623 2.7931 21.2262 2.78019 20.7257L2.75317 18.9456L2.76309 14.4075L2.84126 10.0711L2.90085 8.54333L2.93461 8.03831C2.94634 7.90346 2.95846 7.80355 2.97086 7.74355C3.01178 7.54623 3.05299 7.36259 3.09559 7.1907C3.13539 7.0285 3.17968 6.86748 3.22837 6.70774C3.27466 6.55698 3.32342 6.41576 3.37556 6.28199C3.42583 6.15239 3.48186 6.02512 3.5435 5.90054C3.60367 5.77938 3.66834 5.66336 3.73854 5.55045C3.80876 5.43754 3.88454 5.328 3.96716 5.21905C4.04979 5.1101 4.13876 5.00255 4.23559 4.89351C4.33243 4.78447 4.43701 4.67434 4.55042 4.56082C4.6826 4.42789 4.82022 4.30048 4.96295 4.17896C5.09774 4.0643 5.23827 3.9566 5.38404 3.8563C5.52735 3.75697 5.67434 3.6686 5.82738 3.58735C5.98042 3.50613 6.13951 3.43272 6.30685 3.36669C6.47418 3.30065 6.64998 3.24155 6.83617 3.18793C7.03182 3.13305 7.22961 3.08623 7.42907 3.04759C7.63881 3.00649 7.86158 2.97063 8.09942 2.93935C8.33728 2.90807 8.59032 2.88105 8.86086 2.85761C9.04955 2.84133 9.37468 2.82682 9.80283 2.81461L11.361 2.78383L15.5061 2.75849L15.5054 2.7594Z" fill="white"/>
</svg>
