<svg width="30" height="18" viewBox="0 0 30 18" fill="none" xmlns="http://www.w3.org/2000/svg">
<path fill-rule="evenodd" clip-rule="evenodd" d="M28.8807 8.38067C29.045 8.54493 29.1372 8.76771 29.1372 9C29.1372 9.23229 29.045 9.45507 28.8807 9.61933L21.4488 17.0513C21.2845 17.2155 21.0617 17.3078 20.8294 17.3078C20.5972 17.3078 20.3744 17.2155 20.2101 17.0513C20.0459 16.887 19.9536 16.6642 19.9536 16.4319C19.9536 16.1996 20.0459 15.9769 20.2101 15.8126L26.147 9.87573L1.01097 9.87697C0.895806 9.87697 0.781769 9.85428 0.67537 9.81021C0.568972 9.76614 0.472296 9.70154 0.390862 9.62011C0.309428 9.53868 0.244831 9.442 0.200759 9.3356C0.156687 9.2292 0.134004 9.11517 0.134003 9C0.134004 8.88483 0.156687 8.7708 0.200759 8.6644C0.244831 8.558 0.309428 8.46132 0.390862 8.37989C0.472296 8.29846 0.568972 8.23386 0.67537 8.18979C0.781769 8.14572 0.895806 8.12303 1.01097 8.12303L26.147 8.12427L20.2101 2.1874C20.0459 2.02314 19.9536 1.80037 19.9536 1.56807C19.9536 1.33578 20.0459 1.113 20.2101 0.948745C20.3744 0.784488 20.5972 0.692211 20.8294 0.69221C21.0617 0.692211 21.2845 0.784488 21.4488 0.948744L28.8807 8.38067Z" fill="white"/>
</svg>
