<svg width="38" height="31" viewBox="0 0 38 31" fill="none" xmlns="http://www.w3.org/2000/svg">
<path d="M33.8267 7.79407C33.8496 8.12383 33.8496 8.45357 33.8496 8.78637C33.8496 18.9267 26.1073 30.6215 11.9502 30.6215V30.6155C7.76816 30.6215 3.67299 29.4272 0.152405 27.1752C0.760506 27.2481 1.37166 27.2845 1.98433 27.286C5.45005 27.289 8.8167 26.1296 11.5433 23.9947C8.24977 23.9322 5.36166 21.7913 4.35272 18.6653C5.50645 18.8872 6.69522 18.8416 7.8276 18.5331C4.2369 17.8098 1.65361 14.6642 1.65361 11.0111C1.65361 10.9776 1.65361 10.9457 1.65361 10.9138C2.72351 11.508 3.92142 11.8377 5.14676 11.8742C1.76487 9.62064 0.722404 5.13476 2.76466 1.6275C6.67236 6.42186 12.4379 9.33647 18.6271 9.64496C18.0068 6.97956 18.8542 4.18653 20.8538 2.31284C23.9538 -0.592649 28.8293 -0.443728 31.7432 2.64563C33.467 2.30676 35.1191 1.67613 36.6309 0.782595C36.0564 2.55903 34.8538 4.068 33.2474 5.02686C34.773 4.84754 36.2636 4.4403 37.6673 3.81877C36.6339 5.3627 35.3324 6.70754 33.8267 7.79407Z" fill="white"/>
</svg>
