<svg width="144" height="145" viewBox="0 0 144 145" fill="none" xmlns="http://www.w3.org/2000/svg">
<path d="M57.2361 13.5423C57.9867 4.94804 68.2306 -1.69759 79.2713 0.490042L82.2855 1.0967C87.6326 2.16294 92.3792 5.28813 93.9729 9.96673C96.5137 17.4672 100.128 33.0472 94.689 51.4215C96.3897 51.2345 98.0955 51.0782 99.8051 50.9527C108.039 50.3553 119.08 50.2909 128.862 52.883C134.844 54.4732 140.342 59.1426 142.721 64.5841C144.846 69.4741 144.568 75.2649 140.018 80.5134C140.688 81.6072 141.208 82.7378 141.612 83.85C142.501 86.3317 142.917 89.0617 142.917 91.7181C142.917 94.3745 142.501 97.1045 141.612 99.5862C141.162 100.827 140.573 102.096 139.764 103.3C141.716 106.857 141 110.828 139.729 113.852C138.429 116.838 136.525 119.635 134.094 122.134C134.717 123.531 134.971 125.001 134.971 126.408C134.971 129.211 133.943 132.153 132.049 134.791C128.192 140.177 120.535 144.571 109.714 144.571H69.2931C62.306 144.571 56.9358 143.826 52.3624 142.567C48.43 141.424 44.6721 139.932 41.1601 138.118L40.6057 137.842C34.7851 135.02 29.0684 132.244 16.7227 131.206C7.87631 130.452 0 124.772 0 116.995V80.2284C0 72.4154 7.91096 67.0658 15.6718 65.3838C25.4767 63.2513 33.8497 58.1499 40.2939 52.4234C46.7613 46.6602 50.8496 40.658 52.2932 37.3581C54.5914 32.0729 56.4045 23.212 57.2361 13.5515V13.5423Z" fill="white"/>
</svg>
