<svg width="150" height="112" viewBox="0 0 150 112" fill="none" xmlns="http://www.w3.org/2000/svg">
<path d="M45 55.8186C59.5078 55.8186 71.25 43.3623 71.25 27.9721C71.25 12.5819 59.5078 0.125488 45 0.125488C30.4922 0.125488 18.75 12.5819 18.75 27.9721C18.75 43.3623 30.4922 55.8186 45 55.8186ZM63 63.7748H61.0547C56.1797 66.2611 50.7656 67.7529 45 67.7529C39.2344 67.7529 33.8438 66.2611 28.9453 63.7748H27C12.0938 63.7748 0 76.6041 0 92.417V99.5776C0 106.166 5.03906 111.512 11.25 111.512H78.75C84.9609 111.512 90 106.166 90 99.5776V92.417C90 76.6041 77.9062 63.7748 63 63.7748ZM112.5 55.8186C124.922 55.8186 135 45.1275 135 31.9501C135 18.7728 124.922 8.08165 112.5 8.08165C100.078 8.08165 90 18.7728 90 31.9501C90 45.1275 100.078 55.8186 112.5 55.8186ZM123.75 63.7748H122.859C119.602 64.9682 116.156 65.7639 112.5 65.7639C108.844 65.7639 105.398 64.9682 102.141 63.7748H101.25C96.4688 63.7748 92.0625 65.2417 88.1953 67.6037C93.9141 74.1427 97.5 82.8199 97.5 92.417V101.964C97.5 102.511 97.3828 103.034 97.3594 103.556H138.75C144.961 103.556 150 98.2101 150 91.6214C150 76.2312 138.258 63.7748 123.75 63.7748Z" fill="white"/>
</svg>
