<svg width="30" height="18" viewBox="0 0 30 18" fill="none" xmlns="http://www.w3.org/2000/svg">
<path fill-rule="evenodd" clip-rule="evenodd" d="M28.8807 8.38067C29.0449 8.54493 29.1372 8.76771 29.1372 9C29.1372 9.23229 29.0449 9.45507 28.8807 9.61933L21.4487 17.0513C21.2845 17.2155 21.0617 17.3078 20.8294 17.3078C20.5971 17.3078 20.3743 17.2155 20.2101 17.0513C20.0458 16.887 19.9536 16.6642 19.9536 16.4319C19.9536 16.1996 20.0458 15.9769 20.2101 15.8126L26.147 9.87573L1.01094 9.87697C0.895776 9.87697 0.781738 9.85428 0.67534 9.81021C0.568941 9.76614 0.472265 9.70154 0.390831 9.62011C0.309397 9.53868 0.2448 9.442 0.200728 9.3356C0.156657 9.2292 0.133973 9.11517 0.133973 9C0.133973 8.88483 0.156657 8.7708 0.200728 8.6644C0.2448 8.558 0.309397 8.46132 0.390831 8.37989C0.472265 8.29846 0.568941 8.23386 0.67534 8.18979C0.781738 8.14572 0.895776 8.12303 1.01094 8.12303L26.147 8.12427L20.2101 2.1874C20.0458 2.02314 19.9536 1.80037 19.9536 1.56807C19.9536 1.33578 20.0458 1.113 20.2101 0.948745C20.3743 0.784488 20.5971 0.692211 20.8294 0.69221C21.0617 0.692211 21.2845 0.784488 21.4487 0.948744L28.8807 8.38067Z" fill="white"/>
</svg>
